# xmcd CD database file
#
# Track frame offsets:
#	150
#	24521
#	52732
#	70595
#	108078
#	126892
#	155658
#	171503
#	199484
#	216008
#
# Disc length: 3414 seconds
#
# Revision: 0
# Processed by: cddbd v1.5.2PL0 Copyright (c) Steve Scherf et al.
# Submitted via: CDex 1.51
#
DISCID=880d540a
DTITLE=Julia Holter - Extasis
DYEAR=2012
DGENRE=Jazz
TTITLE0=Marienbad
TTITLE1=our sorrows
TTITLE2=in the same room
TTITLE3=boy in the moon
TTITLE4=fuer felix
TTITLE5=goddess eyes
TTITLE6=moni mon amie
TTITLE7=four gardens
TTITLE8=goodness eyes II
TTITLE9=this is extasis
EXTD=YEAR: 2012
EXTT0=
EXTT1=
EXTT2=
EXTT3=
EXTT4=
EXTT5=
EXTT6=
EXTT7=
EXTT8=
EXTT9=
PLAYORDER=
